<svg width="16" height="14" viewBox="0 0 16 14" fill="none" xmlns="http://www.w3.org/2000/svg">
<path d="M3.77097 5.3392C4.75072 4.96537 5.20516 3.77316 4.78598 2.67633C4.36681 1.5795 3.23275 0.993388 2.253 1.36722C1.27325 1.74105 0.818813 2.93326 1.23799 4.03009C1.65717 5.12692 2.79122 5.71303 3.77097 5.3392Z" fill="#A55937"/>
<path d="M3.16158 5.49377C2.34267 5.49377 1.53847 4.93337 1.20012 4.04468C0.771048 2.92755 1.23935 1.70752 2.24214 1.32534C3.24494 0.943167 4.40465 1.54216 4.83188 2.6599C5.26095 3.77704 4.79204 4.99707 3.78986 5.37863C3.58931 5.45532 3.37631 5.49436 3.16158 5.49377ZM2.86552 1.29717C2.6619 1.29713 2.45998 1.33429 2.26973 1.4068C1.31413 1.77428 0.869734 2.94102 1.2798 4.01406C1.68987 5.0871 2.80116 5.6622 3.75737 5.30024C4.71358 4.93827 5.15675 3.76908 4.74668 2.69298C4.42059 1.83614 3.64888 1.29717 2.86552 1.29717V1.29717Z" fill="#6D2E1B"/>
<path d="M3.47048 4.55364C4.06251 4.32775 4.33715 3.60745 4.0839 2.9448C3.83066 2.28215 3.14543 1.92809 2.5534 2.15398C1.96138 2.37987 1.68674 3.10017 1.93999 3.76282C2.19323 4.42547 2.87846 4.77953 3.47048 4.55364Z" fill="#844025"/>
<path d="M13.9346 3.12132C14.1933 1.97605 13.5737 0.86058 12.5507 0.629844C11.5277 0.399108 10.4887 1.14048 10.2299 2.28575C9.97121 3.43101 10.5908 4.54648 11.6138 4.77722C12.6368 5.00796 13.6759 4.26658 13.9346 3.12132Z" fill="#A55937"/>
<path d="M11.9937 4.86354C11.8629 4.86368 11.7326 4.84909 11.6051 4.82006C10.56 4.58426 9.92496 3.44324 10.1885 2.2765C10.307 1.72621 10.624 1.23875 11.0792 0.907026C11.2892 0.751141 11.5302 0.642007 11.7859 0.586966C12.0417 0.531926 12.3063 0.532256 12.5619 0.587933C13.6039 0.823731 14.242 1.96475 13.9784 3.1315C13.86 3.68212 13.5427 4.16985 13.0872 4.50158C12.7696 4.73371 12.3871 4.86032 11.9937 4.86354V4.86354ZM12.1727 0.631417C11.7976 0.634906 11.4332 0.755943 11.1306 0.977459C10.6922 1.29649 10.3867 1.76569 10.2725 2.29548C10.0194 3.41568 10.6256 4.51015 11.621 4.73554C11.8643 4.7878 12.1159 4.78751 12.359 4.73469C12.6022 4.68188 12.8312 4.57776 13.0308 4.42931C13.4692 4.11027 13.7747 3.64107 13.889 3.11129C14.1421 1.99109 13.5359 0.896614 12.5404 0.671227C12.4197 0.644491 12.2964 0.63114 12.1727 0.631417V0.631417Z" fill="#6D2E1B"/>
<path d="M13.2015 2.95536C13.3578 2.26345 12.9834 1.58952 12.3653 1.4501C11.7471 1.31067 11.1193 1.75855 10.963 2.45046C10.8066 3.14237 11.1811 3.8163 11.7992 3.95573C12.4174 4.09515 13.0452 3.64727 13.2015 2.95536Z" fill="#844025"/>
<path d="M16 8.77044C14.9794 3.94422 11.1092 0.818815 7.40942 1.0834C3.70961 1.34798 0.323028 4.99153 0 9.91391C0.214535 9.43802 0.446232 8.98358 0.89369 8.80535C0.403325 9.75651 0.500173 10.7989 1.05674 11.913C1.00341 11.4034 0.891239 10.8988 1.22346 10.3579C1.34237 11.7666 1.87319 12.6522 2.77669 13.0626C2.49412 12.6559 2.24649 12.248 2.3605 11.8193C2.3605 11.8193 2.80611 13.2598 4.98579 13.1324C6.11179 13.0522 7.01345 12.4716 8.21791 12.3852C9.42237 12.2988 10.3982 12.7459 11.5242 12.6651C13.6996 12.4814 13.9356 10.9925 13.9356 10.9925C14.1096 11.3997 13.9221 11.8395 13.7002 12.2817C14.5369 11.747 14.9359 10.7959 14.8532 9.38413C15.2583 9.8741 15.2209 10.3873 15.2393 10.8994C15.631 9.71731 15.5795 8.67183 14.958 7.8003C15.4263 7.91299 15.7199 8.32946 16 8.77044Z" fill="#A55937"/>
<path d="M5.34075 6.49589C5.74001 6.39576 5.95973 5.90075 5.83149 5.39026C5.70326 4.87977 5.27564 4.54711 4.87637 4.64724C4.47711 4.74738 4.2574 5.24239 4.38563 5.75287C4.51387 6.26336 4.94149 6.59602 5.34075 6.49589Z" fill="#3F190D"/>
<path d="M5.39605 6.61189C5.79531 6.51175 6.01503 6.01675 5.88679 5.50626C5.75856 4.99577 5.33093 4.66311 4.93167 4.76324C4.53241 4.86338 4.31269 5.35838 4.44093 5.86887C4.56916 6.37936 4.99679 6.71202 5.39605 6.61189Z" fill="#844025"/>
<path d="M5.39627 6.61482C5.6294 6.55635 5.75765 6.2672 5.68274 5.96897C5.60782 5.67075 5.35811 5.47639 5.12499 5.53485C4.89186 5.59332 4.76361 5.88247 4.83852 6.1807C4.91344 6.47892 5.16315 6.67328 5.39627 6.61482Z" fill="#3F190D"/>
<path d="M11.0682 5.27737C11.1224 4.75384 10.8344 4.29511 10.425 4.25276C10.0155 4.21041 9.63962 4.60047 9.58539 5.124C9.53115 5.64753 9.81912 6.10626 10.2286 6.14861C10.638 6.19097 11.0139 5.8009 11.0682 5.27737Z" fill="#3F190D"/>
<path d="M11.0297 5.39938C11.084 4.87585 10.796 4.41711 10.3865 4.37476C9.97707 4.33241 9.60117 4.72248 9.54694 5.24601C9.4927 5.76953 9.78066 6.22827 10.1901 6.27062C10.5996 6.31298 10.9755 5.9229 11.0297 5.39938Z" fill="#844025"/>
<path d="M10.6795 5.76329C10.7112 5.45745 10.5431 5.18947 10.304 5.16474C10.0649 5.14001 9.8454 5.3679 9.81372 5.67374C9.78203 5.97958 9.95016 6.24755 10.1892 6.27228C10.4283 6.29701 10.6478 6.06913 10.6795 5.76329Z" fill="#3F190D"/>
<path d="M9.13983 6.14054C8.50358 3.35199 7.67976 3.55594 7.58659 3.56145C7.49342 3.56696 6.64877 3.48428 6.41646 6.33469C6.32758 7.16641 5.2402 8.74228 5.34317 9.62546C5.44615 10.5086 6.2528 11.1131 7.32977 10.5037C7.92004 10.1577 8.04815 10.0101 8.04815 10.0101C8.04815 10.0101 8.19587 10.1381 8.82967 10.3965C9.98203 10.8467 10.6949 10.1332 10.6685 9.2445C10.6422 8.35582 9.34639 6.95083 9.13983 6.14054Z" fill="#B76C4E"/>
<path d="M9.39355 8.97868C9.4101 9.21019 8.82902 9.96781 8.04934 10.0235C7.26966 10.0793 6.58621 9.41108 6.56966 9.18079C6.55311 8.9505 7.17158 8.71593 7.95126 8.6602C8.73095 8.60446 9.37455 8.74717 9.39355 8.97868Z" fill="#3F190D"/>
<path d="M8.83023 10.4021C8.19705 10.1509 8.04933 10.026 8.04933 10.026C8.04933 10.026 7.92061 10.1705 7.32972 10.5092C6.46851 10.9845 5.78016 10.7046 5.49084 10.1332C5.81081 10.8841 6.72657 11.333 8.07017 10.2765C9.55046 11.1309 10.3933 10.5564 10.6029 9.76816C10.3914 10.3751 9.75028 10.7505 8.83023 10.4021Z" fill="#3F190D"/>
<path d="M6.34242 11.0657L6.33801 11.0598L6.34242 11.0657Z" fill="#3F190D"/>
<path d="M8.1634 11.6196C7.0141 11.7023 6.52497 11.1107 6.48145 11.0549C6.91051 11.6496 7.50018 11.905 8.17933 11.8456C8.86033 11.8077 9.40525 11.4714 9.74789 10.8216C9.71234 10.8828 9.3133 11.5376 8.1634 11.6196Z" fill="#3F190D"/>
<path d="M9.88696 10.8123L9.89065 10.8057C9.88987 10.8081 9.88862 10.8103 9.88696 10.8123V10.8123Z" fill="#3F190D"/>
</svg>
