<svg width="260" height="37" viewBox="0 0 260 37" fill="none" xmlns="http://www.w3.org/2000/svg">
<g clip-path="url(#clip0_1_1657)">
<path d="M54.59 31.422L54.4113 31.3317C54.0848 31.168 53.8156 30.9121 53.6382 30.5969C53.4608 30.2818 53.3832 29.9217 53.4155 29.5628C53.531 28.2667 53.5443 26.9638 53.4553 25.6657C53.4284 25.3099 53.5089 24.9541 53.6868 24.643C53.8646 24.3319 54.1319 24.0794 54.4552 23.9169L54.7085 23.7905C55.0682 23.611 55.3583 23.3207 55.5342 22.964C55.7102 22.6071 55.7624 22.2035 55.6828 21.8148C55.5691 21.2606 55.4366 20.7065 55.2855 20.1523C55.1742 19.7377 55.0506 19.3272 54.9219 18.9216C54.7978 18.5394 54.5484 18.2085 54.2126 17.9805C53.8769 17.7526 53.4737 17.6404 53.0662 17.6617L52.8456 17.6727C52.4796 17.6933 52.1158 17.6058 51.8007 17.4215C51.4857 17.2373 51.2339 16.9647 51.0777 16.6387C50.5124 15.4519 49.853 14.3106 49.1056 13.2254C48.9048 12.9305 48.7969 12.5839 48.7953 12.229C48.7936 11.874 48.8983 11.5265 49.0964 11.2297L49.2404 11.0129C49.4617 10.6783 49.5648 10.2814 49.5338 9.88355C49.5028 9.48565 49.3394 9.10885 49.0688 8.81134C48.3955 8.06903 47.6819 7.36294 46.9312 6.69615C46.6291 6.42696 46.2451 6.26349 45.8387 6.23122C45.4323 6.19889 45.0265 6.29952 44.6843 6.51746L44.4903 6.64095C44.1861 6.83711 43.8295 6.93992 43.4657 6.93616C43.1019 6.9324 42.7475 6.82231 42.4477 6.61984C41.3568 5.87886 40.2092 5.22202 39.0151 4.65522C38.6913 4.49809 38.4219 4.25074 38.2402 3.94403C38.0586 3.63732 37.9729 3.28483 37.9937 2.93054L38.006 2.67956C38.0279 2.28086 37.9154 1.8862 37.6859 1.55676C37.4563 1.22733 37.1227 0.981536 36.7365 0.857495C35.7688 0.54247 34.7845 0.278736 33.7881 0.0674309C33.3894 -0.0177711 32.9733 0.0293221 32.6048 0.201342C32.2363 0.373361 31.9362 0.6606 31.7516 1.01812L31.6402 1.22894C31.476 1.54723 31.2197 1.81061 30.9034 1.98587C30.5871 2.16114 30.2252 2.24043 29.8632 2.21376C28.5644 2.11418 27.2598 2.11251 25.9608 2.20873C25.5994 2.23392 25.2385 2.15359 24.9234 1.97784C24.6083 1.8021 24.3531 1.53876 24.1898 1.2209L24.0723 0.994025C23.8889 0.637812 23.591 0.35112 23.2247 0.17848C22.8585 0.00584032 22.4445 -0.043079 22.0471 0.0393218C21.58 0.135695 21.1122 0.24445 20.6438 0.365587L20.5417 0.392692C20.0399 0.526545 19.5456 0.670099 19.0587 0.823364C18.672 0.946956 18.3375 1.19247 18.107 1.52188C17.8766 1.85129 17.7631 2.2462 17.7842 2.64543L17.7974 2.89741C17.8172 3.2535 17.7293 3.60737 17.5448 3.91445C17.3603 4.22154 17.0876 4.4681 16.7608 4.6231C15.6114 5.16322 14.5052 5.78808 13.4518 6.49235C13.1514 6.69154 12.7979 6.79908 12.4356 6.80139C12.0732 6.80369 11.7183 6.70076 11.4153 6.50539L11.2008 6.36988C10.8595 6.15085 10.454 6.04892 10.0477 6.07995C9.6413 6.111 9.25674 6.27332 8.95397 6.54154C8.17632 7.22707 7.4378 7.95433 6.7418 8.71999C6.4714 9.01751 6.30785 9.39406 6.27628 9.79178C6.24471 10.1895 6.34691 10.5864 6.56717 10.9215L6.70608 11.1314C6.90548 11.4302 7.01028 11.7804 7.00719 12.1378C7.00409 12.4952 6.89328 12.8437 6.68869 13.1391C5.98511 14.1487 5.35772 15.2077 4.81154 16.3074C4.65175 16.6254 4.40027 16.8903 4.08844 17.0688C3.77661 17.2473 3.41823 17.3316 3.05795 17.3113L2.79038 17.2973C2.38535 17.2767 1.98467 17.3875 1.64995 17.6125C1.31522 17.8376 1.06499 18.1646 0.937729 18.5431C0.603814 19.5285 0.325258 20.5312 0.103319 21.5467C0.0167792 21.9394 0.0646957 22.3492 0.239613 22.7123C0.414531 23.0754 0.706638 23.3715 1.0705 23.5545L1.28804 23.663C1.612 23.8246 1.87997 24.077 2.05811 24.3882C2.23624 24.6995 2.31656 25.0557 2.28891 25.4117C2.19474 26.6168 2.18894 27.8269 2.27155 29.0328C2.29472 29.3864 2.21161 29.7389 2.03256 30.0464C1.85352 30.354 1.58644 30.603 1.26454 30.7625L1.01432 30.888C0.655529 31.067 0.36595 31.3562 0.189552 31.7117C0.0131541 32.0671 -0.0404301 32.4695 0.0369339 32.8576C0.153363 33.4198 0.287494 33.9806 0.439328 34.5402C0.563928 34.9979 0.700101 35.4503 0.847849 35.8974C0.993356 36.3472 1.31282 36.7229 1.73741 36.9435H6.57837C6.02779 35.7612 5.57955 34.5355 5.23844 33.2793C1.91103 21.0217 9.34818 8.38268 21.8183 5.112L21.9031 5.09091C34.3477 1.87845 47.1518 9.18176 50.4731 21.4102C51.8862 26.5835 51.4095 32.08 49.126 36.9435H54.351C54.519 36.7621 54.647 36.5485 54.7268 36.316C55.0547 35.3705 55.3308 34.4084 55.5541 33.4339C55.6433 33.0409 55.597 32.6299 55.4225 32.2657C55.2479 31.9015 54.955 31.6047 54.59 31.422Z" fill="#7C4032"/>
<path d="M16.7797 36.9534C15.5556 36.9535 14.3487 36.6693 13.2576 36.124C12.1664 35.5787 11.2217 34.7877 10.5005 33.8155C9.77934 32.8433 9.30206 31.7173 9.10755 30.5294C8.91305 29.3414 9.00683 28.1251 9.38123 26.9795C9.75563 25.834 10.4001 24.7916 11.2621 23.9373C12.1242 23.083 13.1793 22.441 14.3416 22.0636C15.5039 21.6861 16.7405 21.584 17.9506 21.7654C19.1607 21.9469 20.31 22.4068 21.305 23.1076C21.4609 23.2176 21.5659 23.3839 21.5971 23.57C21.6282 23.7561 21.5828 23.9468 21.471 24.1C21.3591 24.2532 21.1899 24.3565 21.0006 24.3871C20.8113 24.4177 20.6173 24.3731 20.4614 24.2631C19.238 23.4038 17.7426 23.0019 16.2446 23.1298C14.7465 23.2578 13.3441 23.9073 12.2899 24.9612C11.2357 26.0152 10.5987 27.4044 10.4938 28.8789C10.389 30.3533 10.8231 31.8162 11.7178 33.0041C12.6127 34.192 13.9094 35.0269 15.3749 35.3585C16.8402 35.6901 18.3779 35.4967 19.7111 34.8131C21.0443 34.1293 22.0854 33.0004 22.6471 31.6292C23.2087 30.2582 23.254 28.735 22.7747 27.334C22.7149 27.1554 22.7294 26.9609 22.815 26.7928C22.9006 26.6248 23.0504 26.4968 23.2317 26.4369C23.4129 26.3769 23.611 26.39 23.7825 26.473C23.954 26.5561 24.0852 26.7025 24.1473 26.8803C24.5392 28.0293 24.6474 29.2533 24.4633 30.4515C24.2791 31.6497 23.8078 32.7878 23.0881 33.7717C22.3685 34.7556 21.4212 35.5572 20.3243 36.1104C19.2274 36.6636 18.0124 36.9525 16.7797 36.9534Z" fill="#7C4032"/>
<path d="M38.2632 36.9533C36.9506 36.9527 35.6563 36.6509 34.4832 36.0721C33.3102 35.4932 32.2908 34.6533 31.5062 33.619C30.7215 32.5847 30.1933 31.3847 29.9635 30.1144C29.7337 28.8442 29.8088 27.5387 30.1826 26.302C30.243 26.1285 30.3692 25.9847 30.535 25.9004C30.7007 25.8162 30.8931 25.798 31.072 25.8498C31.2511 25.9016 31.4028 26.0193 31.4957 26.1783C31.5885 26.3374 31.6153 26.5255 31.5705 26.7036C31.0887 28.2805 31.1996 29.9752 31.8829 31.4785C32.5663 32.9818 33.7767 34.1936 35.2932 34.8929C36.8098 35.5922 38.5314 35.7323 40.1444 35.2878C41.7573 34.8433 43.1539 33.8438 44.0796 32.4714C45.0053 31.0992 45.3983 29.4455 45.187 27.8121C44.9757 26.1787 44.1741 24.6744 42.9285 23.5735C41.6828 22.4725 40.0762 21.8484 38.4014 21.8148C36.7266 21.7813 35.0954 22.3406 33.8051 23.3907C33.656 23.4949 33.4722 23.5396 33.2907 23.516C33.1093 23.4924 32.9437 23.4021 32.8272 23.2633C32.7108 23.1246 32.6521 22.9476 32.663 22.768C32.6739 22.5885 32.7536 22.4196 32.886 22.2955C33.9272 21.4457 35.1612 20.855 36.4838 20.5731C37.8063 20.2913 39.1785 20.3266 40.4842 20.6762C41.7899 21.0258 42.9908 21.6792 43.9853 22.5813C44.9797 23.4835 45.7386 24.6078 46.1976 25.8591C46.6567 27.1104 46.8024 28.452 46.6225 29.7704C46.4426 31.0888 45.9424 32.3452 45.1641 33.4334C44.3858 34.5217 43.3524 35.4096 42.1512 36.0223C40.9501 36.635 39.6164 36.9543 38.2632 36.9533Z" fill="#7C4032"/>
<path d="M18.1794 29.4813C18.0316 29.4813 17.8874 29.4369 17.766 29.354C17.6447 29.271 17.552 29.1536 17.5005 29.0175C17.4491 28.8813 17.4412 28.7329 17.4781 28.5922C17.5148 28.4516 17.5946 28.3253 17.7065 28.2305L24.7679 22.2503L21.8387 21.3237C21.7451 21.2977 21.6578 21.2534 21.582 21.1935C21.5062 21.1336 21.4434 21.0593 21.3975 20.975C21.3516 20.8907 21.3233 20.7982 21.3146 20.703C21.3058 20.6078 21.3166 20.5118 21.3464 20.4208C21.3762 20.3298 21.4243 20.2456 21.488 20.1732C21.5516 20.1009 21.6293 20.042 21.7167 19.9998C21.804 19.9577 21.8991 19.9333 21.9962 19.9281C22.0933 19.9228 22.1905 19.9369 22.282 19.9694L27.6663 21.676L18.6502 29.3137C18.5186 29.423 18.3517 29.4824 18.1794 29.4813Z" fill="#7C4032"/>
<path d="M36.9708 26.7428C36.8991 26.7426 36.8279 26.7321 36.7594 26.7116L27.1764 23.8405L32.7834 18.6935C32.925 18.5722 33.1089 18.5098 33.2964 18.5193C33.4839 18.5288 33.6603 18.6095 33.7885 18.7444C33.9166 18.8793 33.9864 19.0579 33.9832 19.2424C33.9799 19.427 33.9038 19.6031 33.771 19.7336L29.9922 23.198L37.176 25.3503C37.3415 25.4 37.4833 25.5063 37.5759 25.6499C37.6685 25.7934 37.7058 25.9648 37.681 26.1331C37.6562 26.3013 37.5709 26.4553 37.4407 26.5671C37.3104 26.6789 37.1437 26.7412 36.9708 26.7428Z" fill="#7C4032"/>
<path d="M17.704 20.643C17.541 20.643 17.3827 20.5888 17.2548 20.4893C17.127 20.3898 17.0371 20.2508 16.9997 20.0948C16.9622 19.9388 16.9794 19.775 17.0485 19.6298C17.1175 19.4846 17.2345 19.3666 17.3803 19.2948C19.9264 18.049 26.141 16.0242 30.7175 15.6206C30.8121 15.6125 30.9074 15.6227 30.998 15.6509C31.0886 15.679 31.1726 15.7243 31.2454 15.7844C31.3181 15.8444 31.3781 15.918 31.4219 16.0007C31.4658 16.0836 31.4926 16.1741 31.5009 16.2671C31.5091 16.3601 31.4986 16.4538 31.47 16.5428C31.4414 16.6319 31.3953 16.7145 31.3342 16.786C31.2731 16.8575 31.1983 16.9165 31.1141 16.9595C31.0298 17.0026 30.9377 17.029 30.8431 17.0371C26.4413 17.4256 20.4677 19.3721 18.0217 20.5688C17.923 20.6173 17.8143 20.6427 17.704 20.643Z" fill="#7C4032"/>
<path d="M14.3931 19.0951C14.2296 19.0948 14.0709 19.04 13.943 18.9398C13.8151 18.8395 13.7255 18.6997 13.6888 18.5431C13.6521 18.3864 13.6704 18.2221 13.7408 18.077C13.8112 17.9318 13.9295 17.8144 14.0765 17.7438C19.6069 15.1016 26.036 14.0685 30.4552 13.668C30.5498 13.6594 30.6452 13.6692 30.736 13.697C30.8267 13.7246 30.911 13.7696 30.9841 13.8293C31.0572 13.889 31.1176 13.9623 31.1618 14.0449C31.2061 14.1276 31.2334 14.218 31.2421 14.311C31.2508 14.404 31.2408 14.4978 31.2126 14.587C31.1845 14.6762 31.1387 14.7591 31.078 14.8309C31.0173 14.9027 30.9427 14.9621 30.8586 15.0056C30.7745 15.0491 30.6826 15.0759 30.588 15.0845C26.2893 15.475 20.044 16.4749 14.7067 19.0238C14.6089 19.0703 14.5017 19.0946 14.3931 19.0951Z" fill="#7C4032"/>
<path d="M37.895 12.6631C37.5977 12.3122 37.221 12.0344 36.7951 11.8519C35.9566 11.5077 35.1354 11.1994 32.5883 11.1161C31.7029 11.0928 30.8171 11.1419 29.94 11.2627C29.7616 11.2993 29.6038 11.4008 29.4984 11.547C29.3928 11.693 29.3473 11.8729 29.371 12.0505C29.3946 12.2282 29.4856 12.3905 29.6258 12.505C29.7659 12.6195 29.9449 12.6778 30.1269 12.6681C31.1979 12.5145 32.2836 12.4862 33.3614 12.5838C32.9913 12.9911 32.7436 13.4915 32.6461 14.0292C32.5486 14.5668 32.6051 15.1205 32.8093 15.6284C33.0134 16.1364 33.3572 16.5785 33.8023 16.9054C34.2473 17.2323 34.7761 17.4312 35.3295 17.4798C35.4203 17.4878 35.5113 17.4918 35.6011 17.4918C36.3485 17.4903 37.0684 17.2143 37.6195 16.7181C38.1707 16.2219 38.5133 15.5411 38.5803 14.8095C38.616 14.4249 38.5738 14.0373 38.4562 13.6689C38.3385 13.3005 38.1478 12.9586 37.895 12.6631ZM37.1382 14.6869C37.1115 14.9809 36.9984 15.2609 36.8126 15.4928C36.6269 15.7248 36.3766 15.8985 36.0921 15.9931C35.8077 16.0877 35.5014 16.0989 35.2106 16.0254C34.9198 15.952 34.657 15.7969 34.4542 15.5793C34.2515 15.3617 34.1174 15.0907 34.0685 14.7995C34.0195 14.5084 34.0578 14.2095 34.1785 13.9392C34.2993 13.669 34.4975 13.4392 34.7487 13.2777C35.0001 13.1161 35.2938 13.0299 35.594 13.0295C35.6399 13.0295 35.6869 13.0295 35.7339 13.0356C36.1427 13.072 36.5201 13.2663 36.7834 13.5759C37.0466 13.8855 37.1742 14.285 37.1382 14.6869Z" fill="#7C4032"/>
<path d="M68.0952 0.272949H77.7747C81.6431 0.272949 84.6857 2.99087 84.6857 7.20237C84.6857 10.7353 82.6107 12.7746 80.1233 13.5897L84.963 19.2984H78.0489L73.9031 13.8626V19.2984H68.0952V0.272949ZM77.3543 8.83237C77.7672 8.79374 78.1504 8.60534 78.429 8.30394C78.7082 8.00248 78.8623 7.60974 78.8623 7.20237C78.8623 6.79495 78.7082 6.4022 78.429 6.1008C78.1504 5.79939 77.7672 5.61097 77.3543 5.57235H73.9031V8.83237H77.3543Z" fill="#7C4032"/>
<path d="M87.0372 9.78377C87.0372 4.07872 91.1644 0 96.5743 0C101.984 0 106.115 4.07872 106.115 9.78377C106.115 15.4888 101.966 19.5675 96.5743 19.5675C91.183 19.5675 87.0372 15.4925 87.0372 9.78377ZM100.307 9.78377C100.307 7.20232 98.6493 5.57229 96.5557 5.57229C94.4621 5.57229 92.8037 7.20232 92.8037 9.78377C92.8037 12.3652 94.4621 13.9989 96.5557 13.9989C98.6493 13.9989 100.307 12.3652 100.307 9.78377Z" fill="#7C4032"/>
<path d="M109.016 11.1446V0.272949H114.823V11.1446C114.823 12.9111 115.93 13.999 117.45 13.999C118.969 13.999 120.076 12.9111 120.076 11.1446V0.272949H125.88V11.1446C125.88 16.3076 122.563 19.5676 117.446 19.5676C112.328 19.5676 109.016 16.3076 109.016 11.1446Z" fill="#7C4032"/>
<path d="M129.477 0.272949H135.976L140.264 8.56319H140.815V0.272949H146.623V19.2984H140.125L135.841 11.0193H135.285V19.3094H129.477V0.272949Z" fill="#7C4032"/>
<path d="M150.356 0.272949H157.819C163.352 0.272949 167.498 4.34799 167.498 9.78382C167.498 15.2197 163.371 19.2984 157.819 19.2984H150.356V0.272949ZM157.957 13.7261C160.033 13.7261 161.71 12.0961 161.71 9.78382C161.71 7.47156 160.051 5.84524 157.957 5.84524H156.16V13.7261H157.957Z" fill="#7C4032"/>
<path d="M179.25 0.272949H188.929C192.798 0.272949 195.84 2.99087 195.84 7.20237C195.84 10.7353 193.765 12.7746 191.278 13.5897L196.118 19.2984H189.203L185.058 13.8626V19.2984H179.25V0.272949ZM188.513 8.83237C188.925 8.79374 189.309 8.60534 189.587 8.30394C189.866 8.00248 190.021 7.60974 190.021 7.20237C190.021 6.79495 189.866 6.4022 189.587 6.1008C189.309 5.79939 188.925 5.61097 188.513 5.57235H185.058V8.83237H188.513Z" fill="#7C4032"/>
<path d="M198.192 9.78377C198.192 4.07872 202.337 0 207.729 0C213.12 0 217.27 4.07872 217.27 9.78377C217.27 15.4888 213.12 19.5675 207.729 19.5675C202.337 19.5675 198.192 15.4925 198.192 9.78377ZM211.462 9.78377C211.462 7.20232 209.804 5.57229 207.729 5.57229C205.654 5.57229 203.996 7.20232 203.996 9.78377C203.996 12.3652 205.654 13.9989 207.729 13.9989C209.804 13.9989 211.462 12.3652 211.462 9.78377Z" fill="#7C4032"/>
<path d="M219.619 9.78377C219.619 4.07872 223.768 0 229.159 0C234.138 0 237.593 3.39648 238.284 8.01729H232.476C232.288 7.30004 231.857 6.6671 231.254 6.22267C230.651 5.77825 229.913 5.54887 229.159 5.5723C227.085 5.5723 225.427 7.20232 225.427 9.78377C225.427 12.3653 227.085 13.9989 229.159 13.9989C230.957 13.9989 232.063 12.9111 232.476 11.4175H238.284C237.593 16.1748 234.138 19.5712 229.159 19.5712C223.768 19.5675 219.619 15.4925 219.619 9.78377Z" fill="#7C4032"/>
<path d="M241.326 0.272949H247.13V8.01734L251.279 0.272949H257.916L252.664 9.64741L258.472 19.2984H251.831L247.13 11.1446V19.2984H241.326V0.272949Z" fill="#7C4032"/>
<path d="M68.0952 27.903H71.7309C72.0522 27.8922 72.3729 27.9465 72.6725 28.0626C72.9721 28.1787 73.2439 28.3541 73.4717 28.5778C73.6995 28.8015 73.8778 29.0689 73.996 29.3632C74.1136 29.6577 74.1693 29.9727 74.1582 30.289C74.178 30.6798 74.0876 31.0685 73.8957 31.4116C73.7044 31.7548 73.4197 32.0389 73.0736 32.2324V32.2952C73.4593 32.4692 73.7812 32.7544 73.9979 33.1127C74.2139 33.471 74.3148 33.8856 74.2857 34.3013C74.2969 34.6174 74.2411 34.9323 74.1235 35.2265C74.0053 35.5207 73.8264 35.7878 73.5992 36.0113C73.3714 36.2347 73.099 36.4098 72.8 36.5255C72.5004 36.6411 72.1797 36.6949 71.8584 36.6837H68.1064L68.0952 27.903ZM71.7309 31.919C71.9556 31.9295 72.1797 31.8951 72.3908 31.8178C72.6013 31.7405 72.7938 31.622 72.9566 31.4695C73.1194 31.3169 73.2488 31.1334 73.3373 30.9302C73.4259 30.727 73.4717 30.5082 73.4717 30.2871C73.4717 30.0661 73.4259 29.8473 73.3373 29.6441C73.2488 29.4408 73.1194 29.2574 72.9566 29.1048C72.7938 28.9522 72.6013 28.8338 72.3908 28.7565C72.1797 28.6792 71.9556 28.6448 71.7309 28.6553H68.8604V31.919H71.7309ZM71.8584 35.9313C72.0782 35.9385 72.2973 35.9013 72.5022 35.8219C72.7065 35.7426 72.8929 35.6229 73.0482 35.4701C73.2042 35.3173 73.3262 35.1348 73.4073 34.9337C73.489 34.7327 73.5274 34.5175 73.5206 34.3013C73.5379 34.0826 73.507 33.8626 73.4296 33.6568C73.3522 33.451 73.2302 33.2641 73.0724 33.109C72.9139 32.9541 72.7239 32.8346 72.514 32.7591C72.3048 32.6835 72.0807 32.6535 71.8584 32.6713H68.8567V35.9313H71.8584Z" fill="#7C4032"/>
<path d="M83.5764 27.9016H84.3267V36.6823H83.5764V27.9016Z" fill="#7C4032"/>
<path d="M93.6121 32.4192C93.6121 29.7197 95.4618 27.9016 97.8216 27.9016C98.7081 27.9081 99.568 28.2002 100.269 28.7332C100.971 29.266 101.475 30.0103 101.704 30.8519H100.875C100.669 30.2121 100.261 29.6532 99.711 29.2555C99.1613 28.8579 98.497 28.6421 97.8142 28.6392C95.9007 28.6392 94.3698 30.1438 94.3698 32.4045C94.3698 34.6651 95.9007 36.166 97.8142 36.166C98.5032 36.1637 99.1736 35.9428 99.7252 35.5362C100.277 35.1296 100.68 34.559 100.875 33.9091H101.704C101.481 34.7604 100.979 35.516 100.276 36.0597C99.5735 36.6034 98.7081 36.9051 97.8142 36.9184C95.4618 36.9331 93.6121 35.115 93.6121 32.4192Z" fill="#7C4032"/>
<path d="M114.307 33.3854L110.99 27.9016H111.845L114.573 32.4192H114.828L117.548 27.9016H118.404L115.084 33.3854V36.6823H114.333L114.307 33.3854Z" fill="#7C4032"/>
<path d="M127.69 32.4192C127.69 29.7197 129.54 27.9016 131.899 27.9016C132.788 27.9058 133.65 28.1967 134.354 28.7298C135.058 29.2629 135.564 30.0085 135.794 30.8519H134.965C134.758 30.2118 134.349 29.6528 133.799 29.2552C133.248 28.8576 132.583 28.6419 131.899 28.6392C129.986 28.6392 128.455 30.1438 128.455 32.4045C128.455 34.6651 129.986 36.166 131.899 36.166C132.59 36.1645 133.261 35.9439 133.813 35.5373C134.365 35.1307 134.769 34.5596 134.965 33.9091H135.794C135.57 34.7607 135.067 35.5164 134.363 36.06C133.66 36.6037 132.794 36.9053 131.899 36.9184C129.54 36.9331 127.69 35.115 127.69 32.4192Z" fill="#7C4032"/>
<path d="M145.079 27.9016H145.83V35.93H150.425V36.6675H145.079V27.9016Z" fill="#7C4032"/>
<path d="M159.723 27.9016H165.35V28.6392H160.488V31.9029H165.084V32.6405H160.488V35.9005H165.339V36.6381H159.712L159.723 27.9016Z" fill="#7C4032"/>
<path d="M179.524 27.9016H183.223C184.754 27.9016 185.849 28.9674 185.849 30.5384C185.849 32.1684 184.702 33.2342 183.223 33.2342H182.33L186.029 36.6823H185.009L181.31 33.2342H180.289V36.6823H179.539L179.524 27.9016ZM183.223 32.4819C184.307 32.4819 185.073 31.7444 185.073 30.5384C185.09 30.2921 185.055 30.045 184.969 29.8131C184.883 29.5811 184.749 29.3694 184.575 29.1918C184.4 29.0141 184.19 28.8745 183.957 28.7818C183.724 28.6892 183.474 28.6456 183.223 28.654H180.289V32.4819H183.223Z" fill="#7C4032"/>
<path d="M195.326 27.9016H200.954V28.6392H196.092V31.9029H200.688V32.6405H196.092V35.9005H200.943V36.6381H195.315L195.326 27.9016Z" fill="#7C4032"/>
<path d="M210.24 27.9016H213.939C214.295 27.9013 214.646 27.9718 214.973 28.1088C215.3 28.2459 215.595 28.4466 215.84 28.699C216.086 28.9514 216.276 29.25 216.401 29.577C216.526 29.9039 216.582 30.2524 216.565 30.6011C216.587 30.948 216.534 31.2953 216.41 31.6208C216.286 31.9463 216.094 32.2427 215.847 32.4907C215.6 32.7389 215.302 32.9332 214.973 33.0613C214.645 33.1894 214.292 33.2483 213.939 33.2343H211.006V36.6823H210.255L210.24 27.9016ZM213.939 32.4819C214.19 32.4907 214.44 32.4477 214.674 32.3555C214.906 32.2633 215.117 32.124 215.291 31.9467C215.467 31.7694 215.601 31.558 215.688 31.3263C215.774 31.0944 215.81 30.8474 215.793 30.6011C215.793 29.4063 215.023 28.654 213.939 28.654H211.006V32.4819H213.939Z" fill="#7C4032"/>
<path d="M229.221 27.9016H230.369L233.746 36.6823H232.995L232.076 34.3H227.525L226.606 36.6823H225.856L229.221 27.9016ZM231.776 33.5477L229.922 28.7167H229.667L227.818 33.5477H231.776Z" fill="#7C4032"/>
<path d="M243.031 27.9016H243.781V36.6823H243.031V27.9016Z" fill="#7C4032"/>
<path d="M253.067 27.9016H256.767C258.298 27.9016 259.393 28.9674 259.393 30.5384C259.393 32.1684 258.245 33.2342 256.767 33.2342H255.874L259.573 36.6823H258.568L254.868 33.2342H253.848V36.6823H253.098L253.067 27.9016ZM256.767 32.4819C257.851 32.4819 258.617 31.7444 258.617 30.5384C258.634 30.2921 258.599 30.045 258.513 29.8131C258.427 29.5811 258.292 29.3694 258.118 29.1918C257.944 29.0141 257.733 28.8745 257.5 28.7818C257.268 28.6892 257.018 28.6456 256.767 28.654H253.833V32.4819H256.767Z" fill="#7C4032"/>
</g>
<defs>
<clipPath id="clip0_1_1657">
<rect width="260" height="37" fill="white"/>
</clipPath>
</defs>
</svg>
