<svg width="238" height="49" viewBox="0 0 238 49" fill="none" xmlns="http://www.w3.org/2000/svg">
<g clip-path="url(#clip0_1_1734)">
<path d="M65 25.3448L61.0098 18.1807H59.8893V25.3448H55.2159V6.36663H63.0596C64.5719 6.36663 65.8564 6.62796 66.9132 7.15063C67.9881 7.67329 68.7898 8.39421 69.3182 9.31339C69.8466 10.2145 70.1108 11.2238 70.1108 12.3412C70.1108 13.6029 69.7464 14.7293 69.0176 15.7206C68.307 16.7118 67.2502 17.4147 65.8473 17.8292L70.2748 25.3448H65ZM59.8893 14.9095H62.7863C63.6426 14.9095 64.2804 14.7023 64.6994 14.2877C65.1367 13.8732 65.3553 13.2875 65.3553 12.5305C65.3553 11.8096 65.1367 11.2418 64.6994 10.8273C64.2804 10.4128 63.6426 10.2055 62.7863 10.2055H59.8893V14.9095ZM82.1184 25.5341C80.3146 25.5341 78.6566 25.1195 77.1443 24.2905C75.6503 23.4614 74.4568 22.308 73.5641 20.8301C72.6889 19.3342 72.2516 17.658 72.2516 15.8017C72.2516 13.9453 72.6889 12.2782 73.5641 10.8003C74.4568 9.3224 75.6503 8.16893 77.1443 7.33987C78.6566 6.51081 80.3146 6.09628 82.1184 6.09628C83.9222 6.09628 85.5711 6.51081 87.0651 7.33987C88.5774 8.16893 89.7617 9.3224 90.6181 10.8003C91.4926 12.2782 91.9299 13.9453 91.9299 15.8017C91.9299 17.658 91.4926 19.3342 90.6181 20.8301C89.7435 22.308 88.5592 23.4614 87.0651 24.2905C85.5711 25.1195 83.9222 25.5341 82.1184 25.5341ZM82.1184 21.3167C83.6489 21.3167 84.8696 20.8121 85.7801 19.8028C86.7099 18.7935 87.1745 17.4598 87.1745 15.8017C87.1745 14.1255 86.7099 12.7918 85.7801 11.8006C84.8696 10.7913 83.6489 10.2866 82.1184 10.2866C80.5697 10.2866 79.3307 10.7823 78.4015 11.7735C77.4905 12.7648 77.035 14.1075 77.035 15.8017C77.035 17.4778 77.4905 18.8205 78.4015 19.8298C79.3307 20.8211 80.5697 21.3167 82.1184 21.3167ZM99.1212 6.36663V17.7211C99.1212 18.8566 99.4036 19.7307 99.9684 20.3435C100.533 20.9562 101.362 21.2626 102.455 21.2626C103.549 21.2626 104.387 20.9562 104.97 20.3435C105.553 19.7307 105.844 18.8566 105.844 17.7211V6.36663H110.518V17.6941C110.518 19.3882 110.153 20.8211 109.425 21.9926C108.696 23.1641 107.712 24.0472 106.473 24.6419C105.252 25.2367 103.886 25.5341 102.373 25.5341C100.861 25.5341 99.5038 25.2457 98.3013 24.669C97.1169 24.0742 96.1786 23.1911 95.4863 22.0196C94.7939 20.8301 94.4477 19.3882 94.4477 17.6941V6.36663H99.1212ZM130.963 25.3448H126.29L118.473 13.6389V25.3448H113.8V6.36663H118.473L126.29 18.1266V6.36663H130.963V25.3448ZM141.538 6.36663C143.561 6.36663 145.328 6.76313 146.84 7.55615C148.352 8.34916 149.519 9.46658 150.338 10.9084C151.177 12.3322 151.596 13.9813 151.596 15.8557C151.596 17.7121 151.177 19.3612 150.338 20.803C149.519 22.2449 148.343 23.3623 146.813 24.1553C145.301 24.9483 143.542 25.3448 141.538 25.3448H134.35V6.36663H141.538ZM141.237 21.3437C143.005 21.3437 144.38 20.8661 145.364 19.9109C146.348 18.9557 146.84 17.604 146.84 15.8557C146.84 14.1075 146.348 12.7468 145.364 11.7735C144.38 10.8003 143.005 10.3137 141.237 10.3137H139.024V21.3437H141.237ZM169.783 25.3448L165.793 18.1807H164.672V25.3448H159.999V6.36663H167.843C169.355 6.36663 170.64 6.62796 171.696 7.15063C172.771 7.67329 173.573 8.39421 174.101 9.31339C174.63 10.2145 174.894 11.2238 174.894 12.3412C174.894 13.6029 174.53 14.7293 173.801 15.7206C173.09 16.7118 172.033 17.4147 170.63 17.8292L175.058 25.3448H169.783ZM164.672 14.9095H167.569C168.426 14.9095 169.064 14.7023 169.483 14.2877C169.92 13.8732 170.139 13.2875 170.139 12.5305C170.139 11.8096 169.92 11.2418 169.483 10.8273C169.064 10.4128 168.426 10.2055 167.569 10.2055H164.672V14.9095ZM186.902 25.5341C185.098 25.5341 183.44 25.1195 181.927 24.2905C180.433 23.4614 179.24 22.308 178.347 20.8301C177.473 19.3342 177.035 17.658 177.035 15.8017C177.035 13.9453 177.473 12.2782 178.347 10.8003C179.24 9.3224 180.433 8.16893 181.927 7.33987C183.44 6.51081 185.098 6.09628 186.902 6.09628C188.705 6.09628 190.354 6.51081 191.848 7.33987C193.361 8.16893 194.545 9.3224 195.401 10.8003C196.276 12.2782 196.713 13.9453 196.713 15.8017C196.713 17.658 196.276 19.3342 195.401 20.8301C194.527 22.308 193.342 23.4614 191.848 24.2905C190.354 25.1195 188.705 25.5341 186.902 25.5341ZM186.902 21.3167C188.432 21.3167 189.653 20.8121 190.564 19.8028C191.493 18.7935 191.958 17.4598 191.958 15.8017C191.958 14.1255 191.493 12.7918 190.564 11.8006C189.653 10.7913 188.432 10.2866 186.902 10.2866C185.353 10.2866 184.114 10.7823 183.185 11.7735C182.274 12.7648 181.818 14.1075 181.818 15.8017C181.818 17.4778 182.274 18.8205 183.185 19.8298C184.114 20.8211 185.353 21.3167 186.902 21.3167ZM198.52 15.8287C198.52 13.9543 198.93 12.2872 199.75 10.8273C200.57 9.34943 201.709 8.20497 203.166 7.39394C204.642 6.56488 206.309 6.15035 208.168 6.15035C210.445 6.15035 212.395 6.74511 214.016 7.93463C215.638 9.12415 216.722 10.7462 217.269 12.8008H212.131C211.748 12.0078 211.201 11.4041 210.491 10.9895C209.799 10.575 209.006 10.3677 208.113 10.3677C206.674 10.3677 205.508 10.8634 204.615 11.8546C203.722 12.8459 203.276 14.1706 203.276 15.8287C203.276 17.4868 203.722 18.8115 204.615 19.8028C205.508 20.794 206.674 21.2897 208.113 21.2897C209.006 21.2897 209.799 21.0824 210.491 20.6679C211.201 20.2533 211.748 19.6496 212.131 18.8566H217.269C216.722 20.9112 215.638 22.5332 214.016 23.7228C212.395 24.8943 210.445 25.48 208.168 25.48C206.309 25.48 204.642 25.0745 203.166 24.2635C201.709 23.4344 200.57 22.2899 199.75 20.8301C198.93 19.3702 198.52 17.7031 198.52 15.8287ZM231.254 25.3448L224.805 16.9641V25.3448H220.131V6.36663H224.805V14.6932L231.2 6.36663H236.693L229.259 15.6665L236.966 25.3448H231.254ZM64.3988 35.3521C64.3988 36.085 64.2285 36.7579 63.8886 37.3707C63.5487 37.9715 63.026 38.4581 62.3217 38.8305C61.6174 39.203 60.7428 39.3892 59.698 39.3892H57.7667V43.931H54.651V31.2789H59.698C60.7183 31.2789 61.5809 31.4531 62.2852 31.8016C62.9896 32.15 63.518 32.6306 63.8704 33.2434C64.2228 33.8562 64.3988 34.5591 64.3988 35.3521ZM59.4611 36.9381C60.0561 36.9381 60.4997 36.8 60.7912 36.5236C61.0827 36.2472 61.2285 35.8567 61.2285 35.3521C61.2285 34.8475 61.0827 34.457 60.7912 34.1806C60.4997 33.9042 60.0561 33.7661 59.4611 33.7661H57.7667V36.9381H59.4611ZM81.8906 41.552H85.9719V43.931H78.775V31.2789H81.8906V41.552ZM103.273 31.2789V38.8486C103.273 39.6055 103.461 40.1883 103.838 40.5968C104.214 41.0053 104.767 41.2096 105.496 41.2096C106.225 41.2096 106.783 41.0053 107.172 40.5968C107.56 40.1883 107.755 39.6055 107.755 38.8486V31.2789H110.871V38.8305C110.871 39.96 110.628 40.9152 110.142 41.6962C109.656 42.4772 109 43.0659 108.174 43.4624C107.36 43.859 106.449 44.0572 105.441 44.0572C104.433 44.0572 103.528 43.865 102.726 43.4805C101.937 43.084 101.311 42.4952 100.85 41.7142C100.388 40.9212 100.157 39.96 100.157 38.8305V31.2789H103.273ZM140.297 31.2789V43.931H137.182V36.3434L134.321 43.931H131.807L128.928 36.3253V43.931H125.812V31.2789H129.493L133.082 40.0381L136.635 31.2789H140.297ZM163.036 37.4428C163.777 37.5989 164.372 37.9654 164.821 38.5422C165.271 39.1069 165.495 39.7557 165.495 40.4887C165.495 41.546 165.119 42.3871 164.366 43.0119C163.625 43.6247 162.586 43.931 161.25 43.931H155.292V31.2789H161.05C162.349 31.2789 163.364 31.5733 164.092 32.162C164.834 32.7508 165.204 33.5498 165.204 34.5591C165.204 35.3041 165.003 35.9228 164.602 36.4155C164.214 36.9081 163.691 37.2505 163.036 37.4428ZM158.408 36.3974H160.448C160.958 36.3974 161.347 36.2893 161.614 36.073C161.894 35.8447 162.033 35.5143 162.033 35.0818C162.033 34.6492 161.894 34.3188 161.614 34.0905C161.347 33.8622 160.958 33.7481 160.448 33.7481H158.408V36.3974ZM160.703 41.4439C161.226 41.4439 161.627 41.3297 161.906 41.1014C162.197 40.8611 162.343 40.5187 162.343 40.0741C162.343 39.6296 162.192 39.2811 161.888 39.0288C161.596 38.7765 161.19 38.6503 160.667 38.6503H158.408V41.4439H160.703ZM183.172 31.2789V43.931H180.057V31.2789H183.172ZM209.626 43.931H206.51L201.299 36.1271V43.931H198.184V31.2789H201.299L206.51 39.1189V31.2789H209.626V43.931ZM233.129 35.28C232.899 34.8595 232.565 34.5411 232.127 34.3248C231.702 34.0965 231.198 33.9824 230.615 33.9824C229.607 33.9824 228.799 34.3128 228.192 34.9736C227.584 35.6224 227.281 36.4936 227.281 37.587C227.281 38.7524 227.597 39.6656 228.228 40.3264C228.872 40.9753 229.752 41.2997 230.87 41.2997C231.635 41.2997 232.279 41.1075 232.801 40.7229C233.336 40.3384 233.724 39.7858 233.967 39.0648H230.014V36.7939H236.792V39.6596C236.561 40.4286 236.166 41.1435 235.607 41.8043C235.061 42.4652 234.362 42.9999 233.512 43.4084C232.662 43.8169 231.702 44.0212 230.633 44.0212C229.37 44.0212 228.24 43.7508 227.244 43.2101C226.26 42.6574 225.489 41.8944 224.93 40.9212C224.384 39.948 224.11 38.8366 224.11 37.587C224.11 36.3373 224.384 35.2259 224.93 34.2527C225.489 33.2675 226.26 32.5045 227.244 31.9638C228.228 31.4111 229.352 31.1347 230.615 31.1347C232.145 31.1347 233.433 31.5012 234.478 32.2341C235.534 32.967 236.233 33.9824 236.573 35.28H233.129Z" fill="#7C4032"/>
<path d="M1.7398 8.62732H3.45333V10.3198C3.45383 10.7757 3.63739 11.2127 3.96374 11.535C4.29008 11.8573 4.73256 12.0386 5.19408 12.0391H6.99395C7.45544 12.0386 7.89796 11.8573 8.22427 11.535C8.55063 11.2127 8.7342 10.7757 8.73471 10.3198V8.62732H10.4482C10.9097 8.62659 11.352 8.44518 11.6783 8.1229C12.0046 7.80063 12.1882 7.36374 12.189 6.90799V5.13023C12.1882 4.67446 12.0046 4.23757 11.6783 3.91529C11.352 3.59301 10.9097 3.41162 10.4482 3.41089H8.73471V1.71935C8.7342 1.2635 8.55063 0.826461 8.22427 0.504127C7.89796 0.181793 7.45544 0.000490688 6.99395 0H5.19408C4.73256 0.000490688 4.29008 0.181793 3.96374 0.504127C3.63739 0.826461 3.45383 1.2635 3.45333 1.71935V3.41089H1.7398C1.27845 3.41162 0.836211 3.59303 0.510069 3.91534C0.183926 4.23765 0.000496285 4.67455 0 5.13023V6.90799C0.000496285 7.36369 0.183926 7.80057 0.510069 8.12285C0.836211 8.44518 1.27845 8.62659 1.7398 8.62732ZM1.32972 5.13023C1.33022 5.02313 1.37364 4.92059 1.4505 4.84502C1.52735 4.76946 1.63137 4.72705 1.7398 4.72705H4.78587V1.71935C4.78587 1.61184 4.82905 1.50872 4.90593 1.43261C4.9828 1.3565 5.08711 1.31362 5.19596 1.31337H6.99395C7.10276 1.31362 7.20707 1.3565 7.284 1.43261C7.36086 1.50872 7.40402 1.61184 7.40402 1.71935V4.72705H10.4482C10.5021 4.72705 10.5554 4.73752 10.6051 4.75788C10.6549 4.77823 10.7001 4.80807 10.7382 4.84568C10.7763 4.88329 10.8065 4.92794 10.8271 4.97709C10.8477 5.02623 10.8583 5.07889 10.8583 5.13209V6.90799C10.8583 7.0155 10.8151 7.11863 10.7382 7.19472C10.6614 7.27081 10.5571 7.31367 10.4482 7.31395H7.40402V10.3198C7.40402 10.373 7.39343 10.4257 7.37282 10.4748C7.35221 10.524 7.32197 10.5686 7.28394 10.6062C7.24585 10.6438 7.20064 10.6737 7.15088 10.694C7.10111 10.7143 7.04782 10.7248 6.99395 10.7248H5.19408C5.08564 10.7244 4.98182 10.6814 4.90532 10.6056C4.82882 10.5296 4.78587 10.4269 4.78587 10.3198V7.31395H1.7398C1.63096 7.31367 1.52666 7.27081 1.44977 7.19472C1.3729 7.11863 1.32972 7.0155 1.32972 6.90799V5.13023Z" fill="#7C4032"/>
<path d="M45.5503 20.5951L39.8964 18.2519V20.2911C39.866 20.2818 39.8344 20.2769 39.8025 20.2762H36.0076V16.0015C36.0074 15.6296 35.8577 15.2731 35.5915 15.0101C35.3253 14.7472 34.9643 14.5994 34.5878 14.5991H31.8177C31.4413 14.5996 31.0804 14.7475 30.8143 15.0104C30.5481 15.2733 30.3984 15.6297 30.3978 16.0015V16.02H27.3622C24.3923 16.0234 21.5451 17.1903 19.4451 19.2644C17.3451 21.3386 16.1639 24.1508 16.1604 27.0841V32.3932H16.1407C15.7643 32.3937 15.4034 32.5416 15.1373 32.8045C14.8711 33.0674 14.7213 33.4238 14.7209 33.7956V36.4974C14.7213 36.8692 14.8711 37.2256 15.1373 37.4885C15.4034 37.7514 15.7643 37.8993 16.1407 37.8998H16.1566V37.9359C16.1561 38.4363 15.9547 38.916 15.5965 39.2698C15.2383 39.6236 14.7526 39.8225 14.246 39.823H12.6507C12.1442 39.8225 11.6585 39.6236 11.3003 39.2698C10.9421 38.916 10.7406 38.4363 10.7401 37.9359H10.7552C11.1316 37.9354 11.4924 37.7875 11.7586 37.5246C12.0247 37.2617 12.1744 36.9053 12.175 36.5335V33.8308C12.1744 33.459 12.0247 33.1026 11.7586 32.8397C11.4924 32.5768 11.1316 32.4289 10.7552 32.4285H10.7401V19.7831H10.7552C11.1316 19.7826 11.4924 19.6347 11.7586 19.3718C12.0247 19.109 12.1744 18.7526 12.175 18.3808V15.6447C12.1747 15.2728 12.025 14.9163 11.7589 14.6533C11.4926 14.3904 11.1316 14.2425 10.7552 14.2423H1.43302C1.05654 14.2425 0.695555 14.3904 0.429341 14.6533C0.163129 14.9163 0.0134626 15.2728 0.0132141 15.6447V18.3808C0.0137107 18.7526 0.163457 19.109 0.429615 19.3718C0.695771 19.6347 1.05662 19.7826 1.43302 19.7831H1.44804V32.4285H1.43302C1.05662 32.4289 0.695771 32.5768 0.429615 32.8397C0.163457 33.1026 0.0137107 33.459 0.0132141 33.8308V36.5326C0.0137107 36.9044 0.163457 37.2608 0.429615 37.5237C0.695771 37.7866 1.05662 37.9345 1.43302 37.935H1.44804C1.45127 40.8686 2.63258 43.6812 4.7328 45.7556C6.833 47.83 9.68057 48.9968 12.6507 49H14.246C17.2165 48.9975 20.0647 47.8312 22.1654 45.7569C24.2662 43.6826 25.4481 40.8699 25.4515 37.9359V37.8998H25.4656C25.8421 37.8995 26.2031 37.7517 26.4693 37.4888C26.7355 37.2258 26.8852 36.8693 26.8854 36.4974V33.7956C26.8852 33.4237 26.7355 33.0672 26.4693 32.8042C26.2031 32.5413 25.8421 32.3935 25.4656 32.3932H25.4515V27.0841C25.4523 26.5838 25.6538 26.1043 26.0119 25.7505C26.3701 25.3968 26.8556 25.1977 27.3622 25.197H30.3978V25.2109C30.3977 25.2707 30.4017 25.3305 30.4101 25.3898C30.4543 25.7277 30.6215 26.0383 30.8805 26.2634C31.1395 26.4885 31.4727 26.6129 31.8177 26.6132H34.5878C34.9643 26.613 35.3253 26.4652 35.5915 26.2023C35.8577 25.9393 36.0074 25.5827 36.0076 25.2109V20.9371H39.7979C39.8297 20.9364 39.8613 20.9315 39.8917 20.9223V22.9382L45.5503 20.5951ZM17.492 27.0832C17.4949 24.4983 18.5357 22.0202 20.3861 20.1923C22.2364 18.3644 24.7451 17.3359 27.3622 17.3325H30.3978V20.28H27.3622C25.5357 20.2819 23.7846 20.9994 22.4932 22.275C21.2017 23.5506 20.4753 25.2801 20.4733 27.0841V32.3932H17.4901L17.492 27.0832ZM12.6507 41.1364H14.246C15.1051 41.1354 15.9287 40.7979 16.5362 40.1979C17.1436 39.5979 17.4853 38.7844 17.4863 37.9359V37.8998H20.4695V37.9359C20.4678 39.5657 19.8116 41.1282 18.6448 42.2806C17.478 43.433 15.8961 44.0812 14.246 44.0829H12.6507C11.0006 44.0812 9.41855 43.4331 8.25161 42.2807C7.08472 41.1283 6.42829 39.5657 6.42629 37.9359H9.40949C9.41046 38.7846 9.75231 39.5982 10.36 40.1982C10.9677 40.7983 11.7915 41.1357 12.6507 41.1364ZM9.40949 32.4285H6.42629V19.7831H9.40949V32.4285ZM1.34387 18.3808V15.6447C1.34384 15.6208 1.35308 15.5979 1.36968 15.5807C1.38628 15.5635 1.40896 15.5531 1.43302 15.552H10.7552C10.78 15.552 10.8039 15.5617 10.8215 15.5791C10.8391 15.5965 10.849 15.6201 10.849 15.6447V18.3808C10.8478 18.4046 10.8374 18.427 10.8199 18.4434C10.8024 18.4597 10.7792 18.4689 10.7552 18.4688H1.43302C1.40975 18.4677 1.38772 18.4581 1.37125 18.4418C1.35477 18.4255 1.34501 18.4038 1.34387 18.3808ZM2.7787 19.7831H5.76189V32.4285H2.7787V19.7831ZM1.43302 36.6207C1.40896 36.6195 1.38628 36.6092 1.36968 36.5919C1.35308 36.5747 1.34384 36.5518 1.34387 36.528V33.8308C1.34501 33.8078 1.35477 33.786 1.37125 33.7698C1.38772 33.7535 1.40975 33.7439 1.43302 33.7427H10.7552C10.7792 33.7427 10.8024 33.7519 10.8199 33.7683C10.8374 33.7846 10.8478 33.8071 10.849 33.8308V36.5326C10.849 36.5572 10.8391 36.5808 10.8215 36.5982C10.8039 36.6155 10.78 36.6253 10.7552 36.6253H1.43302V36.6207ZM24.1218 37.9359C24.1188 40.5211 23.0778 42.9995 21.227 44.8274C19.3763 46.6554 16.8671 47.6837 14.2498 47.6866H12.6545C10.0372 47.6837 7.52793 46.6554 5.6772 44.8274C3.82647 42.9995 2.78543 40.5211 2.78245 37.9359H5.76189C5.76388 39.7399 6.49029 41.4694 7.78175 42.745C9.07327 44.0206 10.8243 44.7381 12.6507 44.7401H14.246C16.0725 44.7381 17.8235 44.0206 19.115 42.745C20.4065 41.4694 21.1329 39.7399 21.1349 37.9359V37.8998H24.1181L24.1218 37.9359ZM25.4656 33.7075C25.4897 33.7075 25.5129 33.7166 25.5303 33.733C25.5478 33.7494 25.5582 33.7718 25.5594 33.7956V36.4974C25.5594 36.522 25.5495 36.5456 25.5319 36.5629C25.5144 36.5803 25.4905 36.5901 25.4656 36.5901H16.1407C16.1166 36.5889 16.0939 36.5786 16.0773 36.5614C16.0607 36.5441 16.0515 36.5212 16.0515 36.4974V33.7956C16.0527 33.7726 16.0624 33.7508 16.0789 33.7346C16.0954 33.7183 16.1174 33.7087 16.1407 33.7075H25.4619H25.4656ZM27.3622 23.8827C26.503 23.8837 25.6794 24.2212 25.072 24.8212C24.4645 25.4212 24.1228 26.2346 24.1218 27.0832V32.3923H21.1386V27.0841C21.1403 25.4544 21.7966 23.8918 22.9634 22.7394C24.1301 21.587 25.7121 20.9388 27.3622 20.9371H30.3978V23.8836L27.3622 23.8827ZM34.6817 25.2072C34.6817 25.2318 34.6718 25.2553 34.6542 25.2727C34.6366 25.2901 34.6127 25.2999 34.5878 25.2999H31.8177C31.7936 25.2987 31.771 25.2884 31.7543 25.2711C31.7378 25.2539 31.7285 25.231 31.7285 25.2072V16.0015C31.7297 15.9785 31.7394 15.9567 31.7559 15.9405C31.7724 15.9242 31.7944 15.9146 31.8177 15.9134H34.5878C34.6119 15.9134 34.6352 15.9225 34.6526 15.9389C34.6701 15.9553 34.6805 15.9777 34.6817 16.0015V25.2109V25.2072ZM41.2299 20.2271L42.1158 20.5978L41.2299 20.9686V20.2271Z" fill="#7C4032"/>
<path d="M6.09432 17.7033C6.13799 17.7033 6.18126 17.6947 6.22163 17.6782C6.262 17.6616 6.29867 17.6374 6.32953 17.6068C6.36039 17.5762 6.38481 17.54 6.4015 17.5C6.41812 17.4602 6.42661 17.4174 6.42649 17.3742V16.6578C6.42649 16.5707 6.39148 16.4873 6.32919 16.4257C6.2669 16.3642 6.1824 16.3296 6.09432 16.3296C6.00618 16.3296 5.92168 16.3642 5.85939 16.4257C5.7971 16.4873 5.76209 16.5707 5.76209 16.6578V17.3742C5.76197 17.4174 5.77046 17.4602 5.78714 17.5C5.80376 17.54 5.82819 17.5762 5.85905 17.6068C5.88991 17.6374 5.92658 17.6616 5.96695 17.6782C6.00732 17.6947 6.05059 17.7033 6.09432 17.7033Z" fill="#7C4032"/>
<path d="M3.4197 17.7033C3.46384 17.7034 3.50757 17.6949 3.54834 17.6781C3.58912 17.6614 3.62612 17.6369 3.65721 17.6059C3.68829 17.575 3.71283 17.5382 3.72941 17.4978C3.74599 17.4574 3.75427 17.4141 3.75377 17.3705V16.654C3.74925 16.5699 3.71222 16.4907 3.65034 16.4328C3.58844 16.3747 3.5064 16.3425 3.4211 16.3425C3.33581 16.3425 3.25377 16.3747 3.19188 16.4328C3.12999 16.4907 3.09297 16.5699 3.08844 16.654V17.3705C3.08849 17.4557 3.12215 17.5375 3.18228 17.5985C3.21276 17.6308 3.24947 17.6566 3.29025 17.6747C3.33103 17.6926 3.37505 17.7024 3.4197 17.7033Z" fill="#7C4032"/>
<path d="M8.76854 17.7033C8.81364 17.7028 8.85822 17.6932 8.8995 17.6752C8.94078 17.6572 8.97796 17.6311 9.00876 17.5985C9.06889 17.5375 9.10254 17.4557 9.1026 17.3705V16.654C9.0981 16.5699 9.06109 16.4907 8.9992 16.4328C8.93731 16.3747 8.85526 16.3425 8.76997 16.3425C8.68467 16.3425 8.60263 16.3747 8.54073 16.4328C8.47884 16.4907 8.44178 16.5699 8.43728 16.654V17.3705C8.43677 17.4139 8.44496 17.4569 8.46136 17.4971C8.47776 17.5374 8.50207 17.574 8.53288 17.6049C8.56362 17.6358 8.60029 17.6605 8.64077 17.6774C8.6812 17.6942 8.72464 17.703 8.76854 17.7033Z" fill="#7C4032"/>
<path d="M6.09432 35.8328C6.13793 35.833 6.1812 35.8245 6.22157 35.8081C6.26194 35.7916 6.29861 35.7675 6.32947 35.737C6.36033 35.7065 6.38481 35.6703 6.40144 35.6304C6.41812 35.5905 6.42661 35.5478 6.42649 35.5047V34.7882C6.42649 34.7012 6.39148 34.6178 6.32919 34.5563C6.2669 34.4947 6.1824 34.4601 6.09432 34.4601C6.00618 34.4601 5.92168 34.4947 5.85939 34.5563C5.7971 34.6178 5.76209 34.7012 5.76209 34.7882V35.5047C5.76197 35.5478 5.77051 35.5905 5.78714 35.6304C5.80376 35.6703 5.82825 35.7065 5.85911 35.737C5.89003 35.7675 5.92669 35.7916 5.967 35.8081C6.00737 35.8245 6.05065 35.833 6.09432 35.8328Z" fill="#7C4032"/>
<path d="M3.4197 35.8329C3.46348 35.8331 3.50688 35.8248 3.5474 35.8084C3.58792 35.792 3.62477 35.7679 3.65581 35.7374C3.68686 35.7069 3.71149 35.6707 3.72831 35.6307C3.74512 35.5908 3.75377 35.548 3.75377 35.5047V34.7883C3.74925 34.7041 3.71222 34.6249 3.65034 34.567C3.58845 34.509 3.5064 34.4767 3.4211 34.4767C3.33581 34.4767 3.25377 34.509 3.19188 34.567C3.12999 34.6249 3.09297 34.7041 3.08844 34.7883V35.5047C3.08844 35.5916 3.12331 35.6749 3.18541 35.7364C3.2475 35.7979 3.33176 35.8326 3.4197 35.8329Z" fill="#7C4032"/>
<path d="M8.76849 35.8329C8.81228 35.8331 8.85572 35.8248 8.8962 35.8084C8.93674 35.792 8.97358 35.7679 9.00461 35.7374C9.0357 35.7069 9.0603 35.6707 9.07715 35.6307C9.09395 35.5908 9.1026 35.548 9.1026 35.5047V34.7883C9.09805 34.7041 9.06104 34.6249 8.99915 34.567C8.93726 34.509 8.85521 34.4767 8.76992 34.4767C8.68462 34.4767 8.60258 34.509 8.54068 34.567C8.47879 34.6249 8.44178 34.7041 8.43729 34.7883V35.5047C8.43729 35.5916 8.47213 35.6749 8.53425 35.7364C8.59631 35.7979 8.68058 35.8326 8.76849 35.8329Z" fill="#7C4032"/>
<path d="M20.8052 34.4602C20.7198 34.4598 20.6377 34.4921 20.5758 34.5501C20.5139 34.6081 20.4771 34.6874 20.473 34.7716C20.4725 34.7772 20.4725 34.7827 20.473 34.7883V35.5048C20.4725 35.5103 20.4725 35.5159 20.473 35.5214C20.4752 35.6085 20.5124 35.691 20.5762 35.751C20.6401 35.8109 20.7255 35.8434 20.8136 35.8412C20.9018 35.839 20.9853 35.8023 21.046 35.7392C21.1068 35.6761 21.1396 35.5918 21.1374 35.5048V34.7883C21.1374 34.7452 21.1288 34.7025 21.1121 34.6627C21.0954 34.6229 21.0709 34.5867 21.0401 34.5563C21.0093 34.5258 20.9726 34.5016 20.9323 34.4851C20.892 34.4687 20.8488 34.4602 20.8052 34.4602Z" fill="#7C4032"/>
<path d="M18.1302 34.4601C18.0866 34.4601 18.0434 34.4686 18.0031 34.4851C17.9628 34.5016 17.9262 34.5258 17.8953 34.5563C17.8644 34.5867 17.84 34.6229 17.8233 34.6627C17.8066 34.7025 17.798 34.7452 17.798 34.7882V35.5047C17.8025 35.5889 17.8396 35.6681 17.9015 35.726C17.9634 35.784 18.0454 35.8163 18.1307 35.8163C18.216 35.8163 18.298 35.784 18.3599 35.726C18.4218 35.6681 18.4588 35.5889 18.4633 35.5047V34.7882C18.4633 34.7451 18.4547 34.7024 18.438 34.6625C18.4212 34.6226 18.3967 34.5864 18.3657 34.5559C18.3348 34.5254 18.298 34.5013 18.2576 34.4848C18.2172 34.4684 18.1739 34.46 18.1302 34.4601Z" fill="#7C4032"/>
<path d="M23.4799 34.4601C23.4362 34.4601 23.393 34.4686 23.3528 34.4851C23.3125 34.5016 23.2758 34.5258 23.245 34.5563C23.2141 34.5867 23.1896 34.6229 23.173 34.6627C23.1563 34.7025 23.1477 34.7452 23.1477 34.7882V35.5047C23.1522 35.5889 23.1892 35.6681 23.2511 35.726C23.313 35.784 23.3951 35.8163 23.4804 35.8163C23.5657 35.8163 23.6476 35.784 23.7095 35.726C23.7714 35.6681 23.8085 35.5889 23.813 35.5047V34.7882C23.813 34.7451 23.8044 34.7024 23.7876 34.6625C23.7709 34.6226 23.7463 34.5864 23.7153 34.5559C23.6844 34.5254 23.6477 34.5013 23.6073 34.4848C23.5668 34.4684 23.5236 34.46 23.4799 34.4601Z" fill="#7C4032"/>
<path d="M33.6128 20.28C33.5972 20.2785 33.5815 20.2785 33.5659 20.28H32.8442C32.8286 20.2785 32.8129 20.2785 32.7973 20.28C32.7185 20.296 32.6482 20.3398 32.5997 20.4033C32.5511 20.4667 32.5275 20.5453 32.5332 20.6247C32.539 20.704 32.5737 20.7785 32.6309 20.8344C32.688 20.8904 32.7639 20.9239 32.8442 20.9287H33.5696C33.65 20.9239 33.7258 20.8904 33.783 20.8344C33.8402 20.7785 33.8749 20.704 33.8806 20.6247C33.8864 20.5453 33.8627 20.4667 33.8142 20.4033C33.7656 20.3398 33.6954 20.296 33.6165 20.28H33.6128Z" fill="#7C4032"/>
<path d="M33.6952 22.9438C33.6542 22.9266 33.6101 22.9178 33.5657 22.9178H32.844C32.7988 22.9155 32.7536 22.9222 32.7112 22.9376C32.6687 22.9531 32.63 22.9769 32.5971 23.0077C32.5643 23.0384 32.5381 23.0754 32.5203 23.1165C32.5024 23.1575 32.4932 23.2017 32.4932 23.2464C32.4932 23.2911 32.5024 23.3353 32.5203 23.3763C32.5381 23.4174 32.5643 23.4545 32.5971 23.4851C32.63 23.5159 32.6687 23.5397 32.7112 23.5552C32.7536 23.5706 32.7988 23.5773 32.844 23.575H33.5694C33.6131 23.575 33.6564 23.5665 33.6968 23.5499C33.7371 23.5334 33.7738 23.5091 33.8046 23.4786C33.8355 23.448 33.8599 23.4117 33.8766 23.3718C33.8932 23.3319 33.9017 23.2891 33.9016 23.2459C33.9016 23.2145 33.8968 23.1833 33.8876 23.1532C33.8733 23.1064 33.8485 23.0633 33.8153 23.0271C33.782 22.9908 33.741 22.9624 33.6952 22.9438Z" fill="#7C4032"/>
<path d="M33.5658 17.6337H32.8441C32.7854 17.6337 32.7276 17.6494 32.6771 17.6791C32.6273 17.7072 32.5858 17.7476 32.5567 17.7964C32.5276 17.8452 32.5118 17.9006 32.511 17.9572C32.511 18.0445 32.5461 18.1282 32.6086 18.1899C32.6711 18.2516 32.7558 18.2862 32.8441 18.2862H33.5696C33.6547 18.2818 33.7349 18.2452 33.7936 18.1841C33.8523 18.1229 33.885 18.0419 33.885 17.9576C33.885 17.8734 33.8523 17.7924 33.7936 17.7313C33.7349 17.6701 33.6547 17.6336 33.5696 17.6291L33.5658 17.6337Z" fill="#7C4032"/>
</g>
<defs>
<clipPath id="clip0_1_1734">
<rect width="238" height="49" fill="white"/>
</clipPath>
</defs>
</svg>
